<svg xmlns="http://www.w3.org/2000/svg" viewBox="0 0 128 128" role="img" aria-labelledby="title desc">
  <title id="title">Street Food Map logo</title>
  <desc id="desc">A map pin with a food bowl and rating star.</desc>
  <defs>
    <linearGradient id="bg" x1="18" y1="10" x2="110" y2="118" gradientUnits="userSpaceOnUse">
      <stop offset="0" stop-color="#19758e"/>
      <stop offset="1" stop-color="#0a4050"/>
    </linearGradient>
    <linearGradient id="pin" x1="36" y1="20" x2="92" y2="105" gradientUnits="userSpaceOnUse">
      <stop offset="0" stop-color="#ff5a4f"/>
      <stop offset="1" stop-color="#c71822"/>
    </linearGradient>
    <filter id="shadow" x="-30%" y="-30%" width="160%" height="170%">
      <feDropShadow dx="0" dy="5" stdDeviation="5" flood-color="#000" flood-opacity=".25"/>
    </filter>
  </defs>

  <rect x="8" y="8" width="112" height="112" rx="28" fill="url(#bg)"/>
  <path d="M64 23c-21 0-37 16-37 37 0 28 37 48 37 48s37-20 37-48c0-21-16-37-37-37z" fill="url(#pin)" filter="url(#shadow)"/>
  <circle cx="64" cy="58" r="27" fill="#fff"/>

  <path d="M43 57h42v6c0 11-9 20-21 20S43 74 43 63v-6z" fill="#12647b"/>
  <path d="M48 54c4-7 12-11 22-9 6 1 11 4 14 9H48z" fill="#19a974"/>
  <path d="M50 66h28" stroke="#fff" stroke-width="5" stroke-linecap="round"/>
  <path d="M43 87h42" stroke="#0a4050" stroke-width="6" stroke-linecap="round"/>

  <path d="M64 32l4 9 10 1-8 7 3 10-9-5-9 5 3-10-8-7 10-1 4-9z" fill="#f3c623" stroke="#7a5d00" stroke-width="1.5" stroke-linejoin="round"/>
</svg>
